<svg width="51" height="50" viewBox="0 0 51 50" fill="none" xmlns="http://www.w3.org/2000/svg">
<rect width="50" height="50" rx="19" fill="#7752BE"/>
<path d="M30.1161 27.5982L20.9732 18.4554C20.8661 18.3393 20.7232 18.2857 20.5714 18.2857C20.5 18.2857 20.4196 18.3036 20.3571 18.3304C20.1429 18.4196 20 18.625 20 18.8571V32.2857C20 32.5179 20.1429 32.7232 20.3571 32.8125C20.4196 32.8393 20.5 32.8571 20.5714 32.8571C20.7232 32.8571 20.8661 32.7946 20.9732 32.6875L23.7589 29.9018L25.4643 33.9375C25.5893 34.2232 25.9196 34.3661 26.2143 34.2411L27.7946 33.5714C28.0804 33.4464 28.2232 33.1161 28.0982 32.8214L26.3036 28.5714H29.7143C29.9464 28.5714 30.1518 28.4286 30.2411 28.2143C30.3304 28.0089 30.2857 27.7589 30.1161 27.5982Z" fill="white"/>
</svg>
